<svg width="108" height="128" viewBox="0 0 108 128" fill="none" xmlns="http://www.w3.org/2000/svg">
<path fill-rule="evenodd" clip-rule="evenodd" d="M41.604 0.723317C35.512 2.65432 30 10.0003 30 16.1863V19.7363H19.071C6.697 19.7363 5 20.5293 5 26.3073C5 29.2983 4.681 29.7363 2.5 29.7363C0.207 29.7363 0 30.1053 0 34.2023V38.6673L5 39.3303L10 39.9943V77.9053C10 114.202 10.088 115.987 12.059 119.851C13.516 122.708 15.341 124.442 18.309 125.789C22.146 127.531 25.208 127.694 54.516 127.714C90.216 127.739 91.069 127.594 95.75 120.737C97.988 117.458 98 117.231 98 78.7173V39.9943L103 39.3303L108 38.6673V34.2023C108 30.1053 107.793 29.7363 105.5 29.7363C103.254 29.7363 103 29.3343 103 25.7713C103 20.4523 101.362 19.7363 89.194 19.7363H79.256L78.583 15.5323C77.69 9.94832 74.721 5.34632 70.2 2.54232C67.005 0.560317 64.998 0.217317 55.5 0.0263172C49.45 -0.0956828 43.197 0.218317 41.604 0.723317ZM64.343 10.8463C66.768 11.9513 69 15.5153 69 18.2833C69 19.4873 66.514 19.7363 54.5 19.7363H40V16.8093C40 11.7163 43.804 9.73632 53.588 9.73632C58.163 9.73632 63.002 10.2363 64.343 10.8463ZM88.834 77.0833C88.567 106.892 88.223 114.765 87.128 116.083C85.904 117.557 82.315 117.736 54.078 117.736C30.773 117.736 22.083 117.419 21.2 116.536C20.309 115.645 20 105.603 20 77.5363V39.7363H54.584H89.168L88.834 77.0833ZM30 78.2363V107.736H34.5H39V78.2363V48.7363H34.5H30V78.2363ZM49.667 49.4033C49.3 49.7693 49 63.0443 49 78.9033V107.736H54H59V78.2363V48.7363H54.667C52.283 48.7363 50.033 49.0363 49.667 49.4033ZM69 78.2363V107.736H73.5H78V78.2363V48.7363H73.5H69V78.2363Z" fill="#F10303"/>
</svg>
