<svg width="16" height="16" viewBox="0 0 16 16" fill="none" xmlns="http://www.w3.org/2000/svg">
<path d="M2.8 16H13.2C14.7464 16 16 14.7464 16 13.2L16 2.8C16 1.2536 14.7464 0 13.2 0L2.8 0C1.2536 0 0 1.2536 0 2.8V13.2C0 14.7464 1.2536 16 2.8 16Z" fill="url(#paint0_radial_60_82)"/>
<path d="M11 14H5C4.20435 14 3.44129 13.6839 2.87868 13.1213C2.31607 12.5587 2 11.7956 2 11V5C2 4.20435 2.31607 3.44129 2.87868 2.87868C3.44129 2.31607 4.20435 2 5 2H11C11.7956 2 12.5587 2.31607 13.1213 2.87868C13.6839 3.44129 14 4.20435 14 5V11C14 11.7956 13.6839 12.5587 13.1213 13.1213C12.5587 13.6839 11.7956 14 11 14V14ZM5 3.2C4.52281 3.20066 4.06536 3.39052 3.72794 3.72794C3.39052 4.06536 3.20066 4.52281 3.2 5V11C3.20066 11.4772 3.39052 11.9346 3.72794 12.2721C4.06536 12.6095 4.52281 12.7993 5 12.8H11C11.4772 12.7993 11.9346 12.6095 12.2721 12.2721C12.6095 11.9346 12.7993 11.4772 12.8 11V5C12.7993 4.52281 12.6095 4.06536 12.2721 3.72794C11.9346 3.39052 11.4772 3.20066 11 3.2H5Z" fill="white"/>
<path d="M8.0001 11.4C7.32764 11.4 6.67029 11.2006 6.11116 10.827C5.55203 10.4534 5.11625 9.92237 4.85891 9.3011C4.60157 8.67983 4.53424 7.99621 4.66543 7.33667C4.79662 6.67713 5.12044 6.07131 5.59594 5.59581C6.07143 5.12032 6.67726 4.7965 7.33679 4.66531C7.99633 4.53412 8.67995 4.60145 9.30122 4.85879C9.92249 5.11612 10.4535 5.55191 10.8271 6.11104C11.2007 6.67017 11.4001 7.32752 11.4001 7.99998C11.3994 8.90151 11.041 9.76593 10.4035 10.4034C9.76605 11.0409 8.90163 11.3993 8.0001 11.4V11.4ZM8.0001 5.79998C7.56498 5.79998 7.13963 5.929 6.77784 6.17074C6.41606 6.41248 6.13408 6.75608 5.96756 7.15807C5.80105 7.56007 5.75748 8.00242 5.84237 8.42918C5.92726 8.85593 6.13679 9.24794 6.44446 9.55561C6.75214 9.86329 7.14414 10.0728 7.5709 10.1577C7.99766 10.2426 8.44001 10.199 8.842 10.0325C9.244 9.866 9.58759 9.58402 9.82933 9.22223C10.0711 8.86044 10.2001 8.4351 10.2001 7.99998C10.1994 7.4167 9.96744 6.85751 9.555 6.44507C9.14257 6.03264 8.58337 5.80064 8.0001 5.79998V5.79998Z" fill="white"/>
<path d="M11.3998 5.39995C11.7312 5.39995 11.9998 5.13132 11.9998 4.79995C11.9998 4.46858 11.7312 4.19995 11.3998 4.19995C11.0684 4.19995 10.7998 4.46858 10.7998 4.79995C10.7998 5.13132 11.0684 5.39995 11.3998 5.39995Z" fill="white"/>
<defs>
<radialGradient id="paint0_radial_60_82" cx="0" cy="0" r="1" gradientUnits="userSpaceOnUse" gradientTransform="translate(-0.321874 15.675) rotate(180) scale(36.9487)">
<stop stop-color="#F9ED32"/>
<stop offset="0.36" stop-color="#EE2A7B"/>
<stop offset="0.44" stop-color="#D22A8A"/>
<stop offset="0.6" stop-color="#8B2AB2"/>
<stop offset="0.83" stop-color="#1B2AF0"/>
<stop offset="0.88" stop-color="#002AFF"/>
</radialGradient>
</defs>
</svg>
