<svg width="137" height="23" viewBox="0 0 137 23" fill="none" xmlns="http://www.w3.org/2000/svg">
<path d="M3.69141 22.0293C2.62695 22.0293 1.84082 21.834 1.33301 21.4434C0.834961 21.0527 0.585938 20.5791 0.585938 20.0225C0.585938 19.5928 0.737305 19.2852 1.04004 19.0996C1.34277 18.9043 1.64551 18.8066 1.94824 18.8066C2.11426 18.8066 2.27539 18.8604 2.43164 18.9678C2.59766 19.0752 2.68066 19.2461 2.68066 19.4805C2.68066 19.666 2.59766 19.8369 2.43164 19.9932C2.27539 20.1396 2.08984 20.2129 1.875 20.2129C1.74805 20.2129 1.62109 20.2031 1.49414 20.1836C1.37695 20.1641 1.26953 20.1201 1.17188 20.0518V20.1396C1.17188 20.5693 1.37695 20.9258 1.78711 21.209C2.20703 21.4824 2.77832 21.6191 3.50098 21.6191C4.14551 21.6191 4.76074 21.5068 5.34668 21.2822C5.93262 21.0576 6.57227 20.6328 7.26562 20.0078C7.96875 19.373 8.80859 18.4551 9.78516 17.2539C10.7617 16.0527 11.9629 14.4707 13.3887 12.5078C14.9512 10.3203 16.5186 8.52832 18.0908 7.13184C19.6631 5.73535 21.2744 4.49023 22.9248 3.39648C23.0225 3.33789 23.1152 3.28418 23.2031 3.23535C23.3008 3.17676 23.3984 3.12305 23.4961 3.07422C22.9004 2.67383 22.1533 2.37598 21.2549 2.18066C20.3662 1.98535 19.3701 1.8877 18.2666 1.8877C16.5674 1.8877 14.9561 2.16113 13.4326 2.70801C11.9092 3.25488 10.5664 3.96289 9.4043 4.83203C8.24219 5.70117 7.33398 6.63867 6.67969 7.64453C6.03516 8.64062 5.72754 9.59766 5.75684 10.5156C5.77637 11.043 5.9082 11.4629 6.15234 11.7754C6.40625 12.0879 6.7041 12.3125 7.0459 12.4492C7.39746 12.5859 7.72949 12.6543 8.04199 12.6543C8.74512 12.6543 9.45312 12.4395 10.166 12.0098C10.8789 11.5703 11.5576 11.0137 12.2021 10.3398C12.8564 9.65625 13.4424 8.93359 13.96 8.17188C14.4775 7.40039 14.8975 6.67773 15.2197 6.00391C15.542 5.33008 15.7227 4.78809 15.7617 4.37793C15.8008 4.0459 15.874 3.87988 15.9814 3.87988C16.0791 3.87988 16.1279 4.03613 16.1279 4.34863C16.1572 5.20801 15.9912 6.14062 15.6299 7.14648C15.2686 8.14258 14.7314 9.08984 14.0186 9.98828C13.3154 10.8867 12.4561 11.6191 11.4404 12.1855C10.4248 12.752 9.28223 13.0352 8.0127 13.0352C7.37793 13.0352 6.7627 12.8154 6.16699 12.376C5.58105 11.9268 5.27832 11.3311 5.25879 10.5889C5.22949 9.62207 5.46875 8.68945 5.97656 7.79102C6.48438 6.88281 7.1875 6.04785 8.08594 5.28613C8.98438 4.52441 10.0049 3.86035 11.1475 3.29395C12.2998 2.71777 13.5059 2.27344 14.7656 1.96094C16.0254 1.63867 17.2656 1.47754 18.4863 1.47754C20.7324 1.47754 22.5537 1.92676 23.9502 2.8252C24.7021 2.44434 25.3516 2.16602 25.8984 1.99023C26.4453 1.81445 26.8555 1.72656 27.1289 1.72656C27.3145 1.72656 27.4121 1.77539 27.4219 1.87305C27.4219 1.99023 27.2852 2.06836 27.0117 2.10742C26.2598 2.26367 25.415 2.62988 24.4775 3.20605C25.6104 4.12402 26.2061 5.30078 26.2646 6.73633C26.3037 7.55664 26.0791 8.37207 25.5908 9.18262C25.1025 9.9834 24.3994 10.7109 23.4814 11.3652C22.5732 12.0098 21.499 12.5176 20.2588 12.8887C20.542 13.1816 20.6885 13.5625 20.6982 14.0312C20.7275 14.4707 20.6787 14.915 20.5518 15.3643C20.4248 15.8037 20.1465 16.3213 19.7168 16.917C19.2871 17.5029 18.6328 18.2354 17.7539 19.1143C17.4219 19.3975 17.1973 19.6611 17.0801 19.9053C16.9629 20.1396 16.9092 20.3545 16.9189 20.5498C16.9189 20.8428 17.0264 21.0967 17.2412 21.3115C17.4561 21.5166 17.8613 21.6191 18.457 21.6191C19.2383 21.6191 20.0537 21.3311 20.9033 20.7549C21.7627 20.1787 22.5635 19.3877 23.3057 18.3818C24.0479 17.376 24.6338 16.2383 25.0635 14.9688C25.1416 14.6758 25.21 14.5293 25.2686 14.5293C25.4443 14.5293 25.5322 14.6709 25.5322 14.9541C25.542 15.8037 25.3125 16.6484 24.8438 17.4883C24.375 18.3184 23.7695 19.0752 23.0273 19.7588C22.2852 20.4424 21.499 20.9941 20.6689 21.4141C19.8486 21.8242 19.0869 22.0293 18.3838 22.0293C17.5928 22.0293 16.9824 21.8633 16.5527 21.5312C16.123 21.1895 15.8984 20.7549 15.8789 20.2275C15.8594 19.5049 15.9766 18.8555 16.2305 18.2793C16.4844 17.7031 16.8115 17.1758 17.2119 16.6973C17.6123 16.2188 18.0127 15.7744 18.4131 15.3643C18.9307 14.9346 19.2627 14.5781 19.4092 14.2949C19.5557 14.0117 19.624 13.7334 19.6143 13.46C19.6143 13.3232 19.585 13.1963 19.5264 13.0791C19.2822 13.1377 19.0479 13.1816 18.8232 13.2109C18.5986 13.2305 18.3887 13.2402 18.1934 13.2402C17.7734 13.2402 17.4561 13.1865 17.2412 13.0791C17.0264 12.9619 16.9141 12.8301 16.9043 12.6836C16.8945 12.5664 16.9824 12.4541 17.168 12.3467C17.3633 12.2295 17.6465 12.1709 18.0176 12.1709C18.3398 12.1709 18.6523 12.2002 18.9551 12.2588C19.2676 12.3076 19.5459 12.4004 19.79 12.5371C20.4639 12.2539 21.1133 11.8438 21.7383 11.3066C22.3633 10.7695 22.9199 10.1641 23.4082 9.49023C23.9062 8.81641 24.292 8.13281 24.5654 7.43945C24.8486 6.74609 24.9805 6.10156 24.9609 5.50586C24.9316 4.72461 24.624 4.05566 24.0381 3.49902C22.876 4.29004 21.6553 5.37402 20.376 6.75098C19.0967 8.11816 17.8369 9.70508 16.5967 11.5117C14.7021 14.168 12.9736 16.2627 11.4111 17.7959C9.8584 19.3291 8.44727 20.418 7.17773 21.0625C5.9082 21.707 4.74609 22.0293 3.69141 22.0293ZM18.1201 12.9033C18.4619 12.9033 18.8184 12.8496 19.1895 12.7422C18.916 12.5859 18.5254 12.5078 18.0176 12.5078C17.627 12.5078 17.4316 12.5566 17.4316 12.6543C17.4316 12.6934 17.4902 12.7471 17.6074 12.8154C17.7246 12.874 17.8955 12.9033 18.1201 12.9033ZM28.6377 22.0293C27.7197 22.0293 27.002 21.8389 26.4844 21.458C25.9766 21.0674 25.7227 20.6035 25.7227 20.0664C25.7227 19.6172 25.874 19.3047 26.1768 19.1289C26.4795 18.9434 26.7822 18.8506 27.085 18.8506C27.2412 18.8506 27.4023 18.8994 27.5684 18.9971C27.7344 19.0947 27.8174 19.2656 27.8174 19.5098C27.8174 19.6953 27.7344 19.8613 27.5684 20.0078C27.4023 20.1543 27.207 20.2275 26.9824 20.2275C26.8555 20.2275 26.7334 20.2227 26.6162 20.2129C26.499 20.1934 26.3916 20.1543 26.2939 20.0957V20.1836C26.2939 20.6035 26.5039 20.9551 26.9238 21.2383C27.3438 21.5117 27.9102 21.6484 28.623 21.6484C29.3652 21.6484 30.21 21.4092 31.1572 20.9307C32.1045 20.4521 33.1738 19.6416 34.3652 18.499C35.5664 17.3564 36.8994 15.7891 38.3643 13.7969C39.1748 12.6934 40.2832 11.4434 41.6895 10.0469C43.0957 8.65039 44.624 7.19043 46.2744 5.66699C45.3564 6.28223 44.4922 6.76074 43.6816 7.10254C42.8711 7.43457 42.0752 7.60059 41.2939 7.60059C40.8643 7.60059 40.5127 7.50293 40.2393 7.30762C39.9658 7.10254 39.8291 6.80469 39.8291 6.41406C39.8291 5.47656 40.5566 4.48535 42.0117 3.44043C42.4707 3.11816 42.7002 2.85449 42.7002 2.64941C42.7002 2.32715 42.5537 2.09766 42.2607 1.96094C41.9775 1.81445 41.5918 1.74121 41.1035 1.74121C40.1855 1.74121 39.3262 1.93164 38.5254 2.3125C37.7344 2.69336 37.0264 3.18652 36.4014 3.79199C35.7861 4.3877 35.2783 5.01758 34.8779 5.68164C34.4873 6.3457 34.2285 6.96094 34.1016 7.52734C34.0234 7.78125 33.9551 7.9082 33.8965 7.9082C33.7891 7.9082 33.7354 7.82031 33.7354 7.64453C33.7354 7.54688 33.7451 7.46875 33.7646 7.41016C33.8721 6.99023 34.1016 6.44336 34.4531 5.76953C34.8145 5.0957 35.2979 4.42188 35.9033 3.74805C36.5088 3.06445 37.251 2.49316 38.1299 2.03418C39.0186 1.56543 40.0439 1.33105 41.2061 1.33105C41.8799 1.33105 42.4365 1.47266 42.876 1.75586C43.3154 2.0293 43.5352 2.37598 43.5352 2.7959C43.5352 3.29395 43.3691 3.81641 43.0371 4.36328C42.7051 4.90039 42.1484 5.41309 41.3672 5.90137C41.0938 6.07715 40.8789 6.21875 40.7227 6.32617C40.5664 6.42383 40.4883 6.55566 40.4883 6.72168C40.4883 6.84863 40.5615 6.96094 40.708 7.05859C40.8643 7.14648 41.0596 7.19043 41.2939 7.19043C42.3682 7.19043 43.4961 6.87793 44.6777 6.25293C45.8594 5.61816 47.1143 4.73926 48.4424 3.61621C49.3896 2.85449 50.1611 2.27344 50.7568 1.87305C51.3525 1.47266 51.8164 1.19922 52.1484 1.05273C52.4805 0.896484 52.7197 0.818359 52.8662 0.818359C53.0029 0.818359 53.0713 0.857422 53.0713 0.935547C53.0713 1.02344 53.0225 1.08203 52.9248 1.11133C52.6123 1.19922 52.1826 1.41406 51.6357 1.75586C51.0889 2.09766 50.3857 2.67383 49.5264 3.48438C48.667 4.28516 47.6123 5.4082 46.3623 6.85352C45.1221 8.29883 43.6475 10.1689 41.9385 12.4639C39.4092 15.8232 36.9873 18.2598 34.6729 19.7734C32.3584 21.2773 30.3467 22.0293 28.6377 22.0293ZM43.5498 22.2051C42.2217 22.2051 41.5576 21.6973 41.5576 20.6816C41.5576 20.2715 41.665 19.7832 41.8799 19.2168C42.1045 18.6406 42.5293 17.9375 43.1543 17.1074C43.7793 16.2773 44.6924 15.2715 45.8936 14.0898C46.2646 13.7285 46.5283 13.3428 46.6846 12.9326C46.8408 12.5127 46.9189 12.1904 46.9189 11.9658C46.9189 11.8682 46.9043 11.7754 46.875 11.6875C46.2891 11.873 45.7373 11.9707 45.2197 11.9805C44.7412 12 44.3506 11.9268 44.0479 11.7607C43.7549 11.5947 43.6084 11.4189 43.6084 11.2334C43.6084 11.0674 43.7354 10.916 43.9893 10.7793C44.2432 10.6328 44.6143 10.5547 45.1025 10.5449C45.5029 10.5352 45.874 10.5791 46.2158 10.6768C46.5576 10.7646 46.8408 10.9209 47.0654 11.1455C47.6514 10.8525 48.2617 10.4131 48.8965 9.82715C49.541 9.24121 50.2637 8.49902 51.0645 7.60059C52.3926 6.14551 53.7109 4.95898 55.0195 4.04102C56.3379 3.11328 57.5537 2.42969 58.667 1.99023C59.79 1.54102 60.7129 1.31641 61.4355 1.31641C62.3828 1.31641 63.0566 1.50195 63.457 1.87305C63.8574 2.23438 64.0088 2.68848 63.9111 3.23535C63.833 3.68457 63.6475 4.04102 63.3545 4.30469C63.0713 4.56836 62.7783 4.7002 62.4756 4.7002C62.1826 4.7002 61.9775 4.6123 61.8604 4.43652C61.7432 4.25098 61.7041 4.05566 61.7432 3.85059C61.7725 3.65527 61.8848 3.47949 62.0801 3.32324C62.2754 3.15723 62.4951 3.07422 62.7393 3.07422C63.0127 3.07422 63.2275 3.14746 63.3838 3.29395L63.4424 3.03027C63.501 2.77637 63.3887 2.4834 63.1055 2.15137C62.8223 1.81934 62.2656 1.65332 61.4355 1.65332C61.0059 1.65332 60.5322 1.77539 60.0146 2.01953C59.5068 2.25391 58.8721 2.67383 58.1104 3.2793C57.3486 3.88477 56.3721 4.74414 55.1807 5.85742C53.7744 7.24414 52.417 8.43066 51.1084 9.41699C49.7998 10.3936 48.5498 11.0967 47.3584 11.5264C47.5342 11.8584 47.6221 12.2344 47.6221 12.6543C47.6221 13.2012 47.5244 13.7871 47.3291 14.4121C47.1436 15.0371 46.7676 15.7402 46.2012 16.5215C45.6445 17.293 44.8096 18.1768 43.6963 19.1729C43.1299 19.6807 42.7588 20.0713 42.583 20.3447C42.417 20.6182 42.334 20.8428 42.334 21.0186C42.334 21.2725 42.4316 21.4678 42.627 21.6045C42.832 21.7314 43.2031 21.7949 43.7402 21.7949C44.1992 21.7949 44.7461 21.6338 45.3809 21.3115C46.0156 20.9795 46.6602 20.5107 47.3145 19.9053C47.9688 19.29 48.5645 18.5527 49.1016 17.6934C49.6387 16.834 50.0391 15.877 50.3027 14.8223C50.3809 14.5195 50.4492 14.3682 50.5078 14.3682C50.625 14.3682 50.6836 14.5537 50.6836 14.9248C50.6836 15.4814 50.5322 16.0869 50.2295 16.7412C49.9268 17.3955 49.5166 18.0449 48.999 18.6895C48.4912 19.334 47.9248 19.9199 47.2998 20.4473C46.6748 20.9746 46.0352 21.3994 45.3809 21.7217C44.7363 22.0439 44.126 22.2051 43.5498 22.2051ZM45.4248 11.5703C45.8545 11.5508 46.2598 11.4678 46.6406 11.3213C46.4648 11.1553 46.2354 11.0332 45.9521 10.9551C45.6787 10.877 45.4053 10.8477 45.1318 10.8672C44.917 10.877 44.7266 10.9258 44.5605 11.0137C44.4043 11.0918 44.3262 11.1602 44.3262 11.2188C44.3262 11.3066 44.4092 11.3896 44.5752 11.4678C44.751 11.5459 45.0342 11.5801 45.4248 11.5703ZM68.877 22.0293C67.8125 22.0293 67.0264 21.834 66.5186 21.4434C66.0205 21.0527 65.7715 20.5791 65.7715 20.0225C65.7715 19.5928 65.9229 19.2852 66.2256 19.0996C66.5381 18.9043 66.8457 18.8066 67.1484 18.8066C67.2949 18.8066 67.4512 18.8604 67.6172 18.9678C67.793 19.0752 67.8809 19.2461 67.8809 19.4805C67.8809 19.666 67.7979 19.8369 67.6318 19.9932C67.4658 20.1396 67.2705 20.2129 67.0459 20.2129C66.9189 20.2129 66.7969 20.2031 66.6797 20.1836C66.5625 20.1641 66.4551 20.125 66.3574 20.0664V20.1396C66.3574 20.5693 66.5674 20.9258 66.9873 21.209C67.4072 21.4824 67.9736 21.6191 68.6865 21.6191C69.3115 21.6191 69.9072 21.5117 70.4736 21.2969C71.0498 21.082 71.6797 20.6719 72.3633 20.0664C73.0566 19.4609 73.8721 18.5771 74.8096 17.415C75.7568 16.2529 76.9189 14.7246 78.2959 12.8301C77.749 12.4688 77.4756 12.0391 77.4756 11.541C77.4756 11.1016 77.666 10.7402 78.0469 10.457C78.4277 10.1738 78.8281 10.0322 79.248 10.0322C79.4336 10.0322 79.541 10.0566 79.5703 10.1055C79.5996 10.1543 79.6143 10.1787 79.6143 10.1787C79.6143 10.2373 79.5557 10.2764 79.4385 10.2959C78.9893 10.3643 78.6475 10.54 78.4131 10.8232C78.1787 11.1064 78.0615 11.4385 78.0615 11.8193C78.0615 12.0439 78.2227 12.2637 78.5449 12.4785L78.75 12.2002C79.8145 10.7646 80.8203 9.50488 81.7676 8.4209C82.7246 7.33691 83.6719 6.37012 84.6094 5.52051C85.5566 4.66113 86.5527 3.875 87.5977 3.16211L88.1982 2.7666C87.6416 2.4248 86.9287 2.16602 86.0596 1.99023C85.1904 1.81445 84.1602 1.72656 82.9688 1.72656C81.1035 1.72656 79.3359 1.99023 77.666 2.51758C76.0059 3.04492 74.541 3.73828 73.2715 4.59766C72.002 5.44727 71.0107 6.37988 70.2979 7.39551C69.5947 8.40137 69.2578 9.3877 69.2871 10.3545C69.3164 11.1553 69.5508 11.7119 69.9902 12.0244C70.4297 12.3369 70.8594 12.4932 71.2793 12.4932C71.9824 12.4932 72.6904 12.2783 73.4033 11.8486C74.1162 11.4189 74.7949 10.8672 75.4395 10.1934C76.0938 9.51953 76.6797 8.80664 77.1973 8.05469C77.7148 7.30273 78.1299 6.59473 78.4424 5.93066C78.7646 5.25684 78.9502 4.71973 78.999 4.31934C79.0283 3.9873 79.0967 3.82129 79.2041 3.82129C79.3018 3.82129 79.3506 3.97266 79.3506 4.27539C79.3799 5.125 79.2139 6.04785 78.8525 7.04395C78.4912 8.03027 77.9541 8.96777 77.2412 9.85645C76.5381 10.7451 75.6787 11.4727 74.6631 12.0391C73.6475 12.6055 72.5049 12.8887 71.2354 12.8887C70.6885 12.8887 70.1562 12.6641 69.6387 12.2148C69.1211 11.7656 68.8525 11.1748 68.833 10.4424C68.8037 9.48535 69.0527 8.5625 69.5801 7.67383C70.1074 6.78516 70.8398 5.95996 71.7773 5.19824C72.7148 4.43652 73.7891 3.77246 75 3.20605C76.2207 2.63965 77.5098 2.2002 78.8672 1.8877C80.2246 1.56543 81.582 1.4043 82.9395 1.4043C84.1602 1.4043 85.249 1.49707 86.2061 1.68262C87.1631 1.86816 87.9932 2.13184 88.6963 2.47363C89.3018 2.13184 89.834 1.88281 90.293 1.72656C90.7617 1.57031 91.1133 1.49219 91.3477 1.49219C91.5332 1.49219 91.6309 1.54102 91.6406 1.63867C91.6406 1.69727 91.6162 1.74609 91.5674 1.78516C91.5283 1.82422 91.4258 1.85352 91.2598 1.87305C90.6152 2 89.9365 2.29297 89.2236 2.75195C90.0146 3.2207 90.6055 3.78223 90.9961 4.43652C91.3867 5.09082 91.582 5.79883 91.582 6.56055C91.582 7.46875 91.3184 8.34766 90.791 9.19727C90.2637 10.0469 89.5508 10.8086 88.6523 11.4824C87.7539 12.1562 86.7383 12.6934 85.6055 13.0938C84.4824 13.4844 83.3203 13.6797 82.1191 13.6797C81.3477 13.6797 80.6348 13.6113 79.9805 13.4746C78.3789 15.623 76.9141 17.3223 75.5859 18.5723C74.2578 19.8125 73.0371 20.7012 71.9238 21.2383C70.8203 21.7656 69.8047 22.0293 68.877 22.0293ZM82.0605 13.2988C82.8418 13.2988 83.6816 13.1377 84.5801 12.8154C85.4785 12.4834 86.3232 11.9951 87.1143 11.3506C87.915 10.7061 88.5645 9.90527 89.0625 8.94824C89.5703 7.98145 89.8242 6.86816 89.8242 5.6084C89.8242 4.57324 89.4482 3.74316 88.6963 3.11816C87.6318 3.88965 86.5137 4.96875 85.3418 6.35547C84.1699 7.74219 82.9297 9.35352 81.6211 11.1895C81.3867 11.5312 81.1572 11.8633 80.9326 12.1855C80.708 12.498 80.4834 12.8057 80.2588 13.1084C80.8643 13.2354 81.4648 13.2988 82.0605 13.2988ZM91.4355 22.0293C90.8887 22.0293 90.4443 21.8926 90.1025 21.6191C89.7607 21.3359 89.5898 20.9697 89.5898 20.5205C89.5898 19.7393 90.1611 18.7969 91.3037 17.6934C92.4463 16.5898 93.9941 15.3838 95.9473 14.0752C94.9512 13.9092 94.0918 13.7432 93.3691 13.5771C92.6562 13.4111 92.085 13.2305 91.6553 13.0352C91.46 13.4258 91.1768 13.9043 90.8057 14.4707C90.4346 15.0371 89.9609 15.6475 89.3848 16.3018C88.9941 16.7607 88.7012 17.083 88.5059 17.2686C88.3105 17.4541 88.1738 17.5664 88.0957 17.6055C88.0273 17.6348 87.9883 17.6592 87.9785 17.6787C87.9492 17.6885 87.9297 17.6592 87.9199 17.5908C87.9199 17.5225 87.9248 17.4688 87.9346 17.4297C87.9346 17.3906 88.0078 17.2979 88.1543 17.1514C88.3008 17.0049 88.6084 16.6387 89.0771 16.0527C89.5654 15.4375 90 14.8516 90.3809 14.2949C90.7617 13.7383 91.0547 13.25 91.2598 12.8301C90.9082 12.6055 90.7031 12.3564 90.6445 12.083C90.5664 11.6143 90.6592 11.1895 90.9229 10.8086C91.1865 10.4277 91.5283 10.2373 91.9482 10.2373C92.4658 10.2373 92.7246 10.4619 92.7246 10.9111C92.7246 11.1357 92.6807 11.3262 92.5928 11.4824C92.5049 11.6387 92.417 11.79 92.3291 11.9365C92.1533 12.1416 92.0654 12.4004 92.0654 12.7129C92.0654 12.8105 92.2314 12.918 92.5635 13.0352C92.9053 13.1426 93.3203 13.25 93.8086 13.3574C94.3066 13.4551 94.7949 13.543 95.2734 13.6211C95.752 13.6895 96.1279 13.7334 96.4014 13.7529C96.5869 13.7627 96.6992 13.7969 96.7383 13.8555C96.7871 13.9043 96.8115 13.9434 96.8115 13.9727C96.8115 14.0703 96.6699 14.2314 96.3867 14.4561C95.8496 14.8662 95.2979 15.3643 94.7314 15.9502C94.165 16.5264 93.6377 17.127 93.1494 17.752C92.6611 18.3672 92.2656 18.9482 91.9629 19.4951C91.6602 20.042 91.5088 20.4912 91.5088 20.8428C91.5088 21.3018 91.6943 21.5312 92.0654 21.5312C92.5439 21.5312 93.0664 21.3701 93.6328 21.0479C94.1992 20.7256 94.7705 20.3203 95.3467 19.832C95.9326 19.3438 96.4795 18.8408 96.9873 18.3232C97.5049 17.7959 97.9492 17.3271 98.3203 16.917C98.6914 16.4971 98.9502 16.209 99.0967 16.0527L99.3896 16.3018C99.1748 16.5068 98.8672 16.834 98.4668 17.2832C98.0762 17.7227 97.6172 18.2158 97.0898 18.7627C96.5625 19.2998 95.9863 19.8174 95.3613 20.3154C94.7461 20.8135 94.1064 21.2236 93.4424 21.5459C92.7783 21.8682 92.1094 22.0293 91.4355 22.0293ZM105.747 9.16797C105.474 9.16797 105.254 9.08496 105.088 8.91895C104.932 8.74316 104.854 8.52344 104.854 8.25977C104.854 7.91797 104.995 7.60547 105.278 7.32227C105.571 7.0293 105.918 6.88281 106.318 6.88281C106.592 6.88281 106.807 6.97559 106.963 7.16113C107.129 7.33691 107.212 7.55176 107.212 7.80566C107.212 8.16699 107.056 8.48438 106.743 8.75781C106.44 9.03125 106.108 9.16797 105.747 9.16797ZM98.2617 22.0293C97.666 22.0293 97.1875 21.9219 96.8262 21.707C96.4551 21.4824 96.2695 21.1846 96.2695 20.8135C96.2695 20.5205 96.3428 20.1836 96.4893 19.8027C96.6357 19.4121 96.9189 18.9043 97.3389 18.2793C97.749 17.6543 98.3496 16.8438 99.1406 15.8477C99.9414 14.8418 100.991 13.582 102.29 12.0684C102.378 12.0781 102.588 12.0879 102.92 12.0977C103.252 12.1074 103.511 12.1123 103.696 12.1123C103.862 12.1123 103.984 12.1123 104.062 12.1123C104.15 12.1025 104.233 12.0928 104.312 12.083C102.886 13.7627 101.719 15.1445 100.811 16.2285C99.9121 17.3125 99.2188 18.1768 98.7305 18.8213C98.2422 19.4658 97.9053 19.959 97.7197 20.3008C97.5342 20.6426 97.4414 20.916 97.4414 21.1211C97.4414 21.375 97.5781 21.5215 97.8516 21.5605C98.125 21.5996 98.3447 21.6191 98.5107 21.6191C99.0381 21.6191 99.6143 21.4434 100.239 21.0918C100.864 20.7305 101.484 20.2861 102.1 19.7588C102.725 19.2217 103.301 18.6797 103.828 18.1328C104.365 17.5859 104.805 17.1172 105.146 16.7266C105.488 16.3262 105.688 16.0967 105.747 16.0381L106.04 16.3018C105.933 16.4189 105.698 16.6875 105.337 17.1074C104.976 17.5273 104.526 18.0156 103.989 18.5723C103.452 19.1191 102.861 19.6562 102.217 20.1836C101.582 20.7109 100.923 21.1504 100.239 21.502C99.5654 21.8535 98.9062 22.0293 98.2617 22.0293ZM119.78 22.0732C119.253 22.0732 118.794 21.9707 118.403 21.7656C118.013 21.5508 117.817 21.2725 117.817 20.9307C117.817 20.667 117.881 20.3545 118.008 19.9932C118.145 19.6318 118.442 19.1387 118.901 18.5137C119.36 17.8789 120.068 17.0244 121.025 15.9502C121.787 15.0811 122.319 14.4072 122.622 13.9287C122.925 13.4502 123.076 13.0938 123.076 12.8594C123.076 12.7227 123.022 12.6006 122.915 12.4932C122.808 12.3857 122.612 12.332 122.329 12.332C122.095 12.332 121.797 12.415 121.436 12.5811C121.074 12.7471 120.576 13.0693 119.941 13.5479C119.18 14.124 118.281 14.9395 117.246 15.9941C116.221 17.0391 115.083 18.3525 113.833 19.9346L112.471 21.7217C112.236 21.6729 111.958 21.6484 111.636 21.6484C111.294 21.6484 111.001 21.668 110.757 21.707C110.522 21.7363 110.352 21.7656 110.244 21.7949C110.82 21.0918 111.265 20.5449 111.577 20.1543C111.899 19.7637 112.153 19.4512 112.339 19.2168C112.534 18.9727 112.72 18.7383 112.896 18.5137C113.071 18.2793 113.301 17.9766 113.584 17.6055C113.867 17.2344 114.268 16.707 114.785 16.0234C115.352 15.2812 115.771 14.7002 116.045 14.2803C116.328 13.8506 116.519 13.5283 116.616 13.3135C116.714 13.0889 116.763 12.9131 116.763 12.7861C116.763 12.4834 116.523 12.332 116.045 12.332C115.801 12.332 115.474 12.4199 115.063 12.5957C114.653 12.7617 114.146 13.084 113.54 13.5625C112.866 14.0996 112.017 14.8955 110.991 15.9502C109.976 17.0049 108.813 18.333 107.505 19.9346L106.143 21.7217C106.006 21.6924 105.864 21.6729 105.718 21.6631C105.581 21.6533 105.444 21.6484 105.308 21.6484C104.956 21.6484 104.658 21.668 104.414 21.707C104.18 21.7363 104.014 21.7656 103.916 21.7949C105.01 20.2129 105.923 18.9043 106.655 17.8691C107.388 16.8242 107.974 15.9893 108.413 15.3643C108.862 14.7393 109.194 14.2656 109.409 13.9434C109.634 13.6113 109.785 13.377 109.863 13.2402C109.941 13.0938 109.985 12.9766 109.995 12.8887C110.015 12.6055 109.907 12.4639 109.673 12.4639C109.536 12.4639 109.321 12.6006 109.028 12.874C108.735 13.1475 108.403 13.4893 108.032 13.8994C107.671 14.3096 107.314 14.7344 106.963 15.1738C106.611 15.6035 106.304 15.9795 106.04 16.3018C105.972 16.3408 105.884 16.3164 105.776 16.2285C105.718 16.1406 105.703 16.082 105.732 16.0527C106.016 15.75 106.333 15.374 106.685 14.9248C107.046 14.4658 107.422 14.0117 107.812 13.5625C108.203 13.1035 108.604 12.7227 109.014 12.4199C109.424 12.1172 109.819 11.9658 110.2 11.9658C110.483 11.9658 110.762 12.0293 111.035 12.1562C111.318 12.2734 111.436 12.5615 111.387 13.0205C111.377 13.1768 111.328 13.377 111.24 13.6211C111.152 13.8555 110.977 14.1582 110.713 14.5293L107.637 18.8066L107.71 18.9678C109.077 17.3857 110.234 16.1162 111.182 15.1592C112.129 14.1924 112.9 13.499 113.496 13.0791C114.062 12.6494 114.556 12.3564 114.976 12.2002C115.405 12.0439 115.815 11.9658 116.206 11.9658C116.831 11.9658 117.275 12.1221 117.539 12.4346C117.812 12.7373 117.939 13.0742 117.92 13.4453C117.9 13.7969 117.847 14.1143 117.759 14.3975C117.671 14.6807 117.466 15.0713 117.144 15.5693C117.993 14.7002 118.755 13.9922 119.429 13.4453C120.161 12.8496 120.757 12.4541 121.216 12.2588C121.685 12.0635 122.119 11.9658 122.52 11.9658C123.154 11.9658 123.599 12.1221 123.853 12.4346C124.116 12.7373 124.243 13.0742 124.233 13.4453C124.224 13.8359 124.092 14.3047 123.838 14.8516C123.594 15.3887 123.169 16.0625 122.563 16.873C121.968 17.6738 121.128 18.665 120.044 19.8467C119.536 20.374 119.233 20.7158 119.136 20.8721C119.038 21.0186 118.989 21.1553 118.989 21.2822L118.887 21.2969C118.887 21.5312 119.243 21.6484 119.956 21.6484C120.435 21.6484 120.957 21.4775 121.523 21.1357C122.09 20.7939 122.656 20.3643 123.223 19.8467C123.799 19.3291 124.336 18.8018 124.834 18.2646C125.332 17.7178 125.752 17.2393 126.094 16.8291C126.436 16.4189 126.655 16.1602 126.753 16.0527L127.061 16.3018C126.943 16.4287 126.704 16.707 126.343 17.1367C125.991 17.5566 125.557 18.0449 125.039 18.6016C124.521 19.1484 123.96 19.6904 123.354 20.2275C122.749 20.7549 122.139 21.1943 121.523 21.5459C120.908 21.8975 120.327 22.0732 119.78 22.0732ZM127.837 22.0879C126.88 22.0879 126.196 21.8389 125.786 21.3408C125.376 20.8428 125.161 20.2324 125.142 19.5098C125.132 18.9824 125.239 18.3965 125.464 17.752C125.688 17.1074 125.923 16.6143 126.167 16.2725C126.89 15.2666 127.671 14.4463 128.511 13.8115C129.351 13.1768 130.171 12.7129 130.972 12.4199C131.782 12.1172 132.495 11.9658 133.11 11.9658C133.706 11.9658 134.121 12.0635 134.355 12.2588C134.6 12.4541 134.727 12.6787 134.736 12.9326C134.766 13.3135 134.561 13.7578 134.121 14.2656C133.691 14.7637 132.935 15.3057 131.851 15.8916C130.767 16.4775 129.253 17.0928 127.31 17.7373C126.968 18.2842 126.738 18.7578 126.621 19.1582C126.504 19.5488 126.445 19.9004 126.445 20.2129C126.445 20.6719 126.597 21.0283 126.899 21.2822C127.212 21.5361 127.578 21.6631 127.998 21.6631C128.916 21.6631 129.775 21.4922 130.576 21.1504C131.387 20.7988 132.124 20.3594 132.788 19.832C133.462 19.3047 134.053 18.7725 134.561 18.2354C135.068 17.6885 135.483 17.2148 135.806 16.8145C136.128 16.4043 136.343 16.1504 136.45 16.0527L136.758 16.3018C136.611 16.4287 136.362 16.707 136.011 17.1367C135.669 17.5664 135.229 18.0596 134.692 18.6162C134.165 19.1729 133.555 19.7148 132.861 20.2422C132.168 20.7695 131.396 21.209 130.547 21.5605C129.707 21.9121 128.804 22.0879 127.837 22.0879ZM127.646 17.2246C129.541 16.5605 131.035 15.877 132.129 15.1738C133.223 14.4609 133.77 13.7822 133.77 13.1377C133.77 12.5908 133.516 12.3174 133.008 12.3174C132.354 12.3174 131.646 12.6689 130.884 13.3721C130.122 14.0752 129.233 15.0957 128.218 16.4336C128.003 16.707 127.812 16.9707 127.646 17.2246Z" fill="#151212"/>
</svg>
