<svg width="16" height="16" viewBox="0 0 16 16" fill="none" xmlns="http://www.w3.org/2000/svg">
<path d="M15.6377 7.55624C15.619 9.53748 15.1096 11.0875 14.0502 12.4344C12.9127 13.8812 11.4315 14.8 9.61897 15.1719C8.21897 15.4562 6.85648 15.3312 5.51898 14.8469C5.2221 14.7375 4.93148 14.6094 4.65335 14.4562C4.56898 14.4094 4.4971 14.4031 4.40335 14.4344C3.13773 14.8437 1.86898 15.25 0.600226 15.6531C0.543976 15.6719 0.468976 15.725 0.425226 15.6844C0.375226 15.6344 0.437726 15.5594 0.456476 15.5C0.709601 14.7469 0.962726 13.9906 1.21898 13.2375C1.37523 12.7781 1.52523 12.3219 1.68773 11.8656C1.73148 11.7469 1.71585 11.6562 1.65023 11.5469C1.32835 10.9969 1.09085 10.4094 0.922101 9.79373C0.606476 8.63748 0.572101 7.46874 0.818976 6.29999C1.08773 5.02499 1.65023 3.88749 2.51585 2.90624C3.56273 1.71874 4.85335 0.934362 6.38772 0.556237C7.36585 0.315612 8.35335 0.278112 9.3471 0.440612C10.6471 0.653112 11.819 1.16874 12.8408 1.99999C13.9033 2.86561 14.6783 3.94061 15.1658 5.23124C15.4346 5.92811 15.6471 7.06874 15.6377 7.55624ZM2.33148 13.7969C3.10648 13.5469 3.8471 13.3094 4.58148 13.0687C4.67835 13.0375 4.75648 13.0437 4.84085 13.1C5.1221 13.2875 5.42523 13.4375 5.73773 13.5687C6.75335 14 7.8096 14.1562 8.90022 14.0156C10.2377 13.8437 11.4127 13.3062 12.4002 12.3719C13.644 11.1937 14.3096 9.74998 14.369 8.04373C14.4252 6.37186 13.8877 4.90311 12.7658 3.65624C11.7002 2.47186 10.3627 1.79686 8.7846 1.62811C7.41272 1.48124 6.12835 1.77811 4.94085 2.49061C3.92523 3.10311 3.1471 3.93749 2.60648 4.99061C2.0096 6.14999 1.80648 7.38123 1.97835 8.67186C2.10648 9.64686 2.45648 10.5437 3.01898 11.35C3.08148 11.4406 3.10023 11.5156 3.06273 11.6219C2.9471 11.9406 2.84398 12.2625 2.7346 12.5812C2.60335 12.975 2.47523 13.3687 2.33148 13.7969Z" fill="#51C85D"/>
<path d="M4.40634 6.08431C4.42197 5.34056 4.68447 4.78744 5.18134 4.34681C5.34072 4.20306 5.53759 4.14056 5.75947 4.17181C5.85322 4.18431 5.94697 4.19369 6.04072 4.18744C6.21572 4.17806 6.33447 4.26244 6.39384 4.41556C6.60322 4.95931 6.80634 5.50306 7.00947 6.04994C7.07822 6.23744 6.95947 6.38431 6.85947 6.51869C6.74384 6.67806 6.60322 6.81869 6.46572 6.95931C6.32509 7.10306 6.30634 7.18431 6.40322 7.35931C6.96884 8.38744 7.76259 9.17806 8.84072 9.66556C8.87822 9.68119 8.91572 9.70306 8.95322 9.72181C9.09697 9.78744 9.22509 9.77181 9.33447 9.64681C9.53447 9.41244 9.75322 9.19681 9.93759 8.94994C10.0595 8.78744 10.1438 8.75931 10.3282 8.84056C10.8782 9.07806 11.3938 9.37806 11.9188 9.66869C12.0157 9.72181 12.0501 9.80306 12.047 9.91556C12.0188 10.8374 11.4907 11.3187 10.5626 11.5312C10.1126 11.6343 9.69697 11.5218 9.28447 11.3718C8.41884 11.0593 7.58447 10.6906 6.88447 10.0718C6.32822 9.57806 5.83759 9.02806 5.42197 8.41244C5.10322 7.93744 4.77197 7.47181 4.58759 6.91869C4.48134 6.62494 4.40322 6.32494 4.40634 6.08431Z" fill="#51C85D"/>
</svg>
